<?xml version="1.0" encoding="utf-8"?>
<!-- Generator: Adobe Illustrator 24.0.0, SVG Export Plug-In . SVG Version: 6.00 Build 0)  -->
<svg version="1.1" id="Layer_1" xmlns="http://www.w3.org/2000/svg" xmlns:xlink="http://www.w3.org/1999/xlink" x="0px" y="0px"
	 viewBox="0 0 232 77" style="enable-background:new 0 0 232 77;" xml:space="preserve">
<style type="text/css">
	.st0{fill-rule:evenodd;clip-rule:evenodd;}
</style>
<g>
	<path class="st0" d="M167.3,39.1c-0.4-2.3-1.3-4.2-2.8-5.6c-1.9-1.9-4.5-2.8-8-2.8c-3.9,0-6.8,1.2-8.7,3.6
		c-1.5,1.9-2.2,4.2-2.2,6.9v6.2L167.3,39.1L167.3,39.1z M137.1,55.2V40.5c0-3.9,1.4-7.1,4.1-9.5c3.4-3.1,8.4-4.6,15.2-4.6
		c6.8,0,11.9,1.5,15.2,4.6c2.7,2.5,4.1,5.6,4.1,9.5v10.8h-8.5v-8.6L137.1,55.2L137.1,55.2z M132.8,38.8v17.6l-8.4,3.3v-8.3h-9.5
		c-12.9,0-19.3-4.3-19-12.8c0.2-8.1,6.6-12.1,19.3-12.1h20.3l0,4.4h-20.1c-3.4,0-6.1,0.7-8,2c-2.1,1.4-3.1,3.4-3.1,6.1
		c0,2.5,1.2,4.5,3.6,6c2.2,1.4,4.9,2,8,2h8.4v-4.7L132.8,38.8L132.8,38.8z M74.1,51.5c-6.8,0-11.9-1.5-15.2-4.6
		c-2.7-2.5-4.1-5.7-4.1-9.6V26.6h8.5V37c0,2.5,0.7,4.7,2.2,6.6c1.9,2.4,4.8,3.6,8.7,3.6c5.4,0,9-0.2,10.9-0.7V26.6h8.5v24
		C89.8,51.2,83.3,51.5,74.1,51.5L74.1,51.5z M17.7,51.2V26.5h21.1c3.7,0,6.6,0.5,8.8,1.7c2.4,1.2,3.6,3.1,3.6,5.5
		c0,1.5-0.8,2.8-2.5,4c3.5,1.5,5.3,3.5,5.3,5.9c0,2.4-1.5,4.3-4.6,5.8c-2.7,1.4-5.9,2-9.7,2L17.7,51.2L17.7,51.2z M26.7,47h10.2
		c2.1,0,4-0.2,5.6-0.7c2-0.6,3-1.5,3-2.7c0-2.3-2.8-3.4-8.5-3.4H26.7V47L26.7,47z M36.8,36.2c1.7,0,3.2-0.3,4.5-0.8
		c1.3-0.5,1.9-1.2,1.9-1.9c0-0.9-0.8-1.5-2.3-2c-1.3-0.4-2.8-0.6-4.4-0.6h-9.7v5.5C31.1,36.4,34.5,36.4,36.8,36.2L36.8,36.2z
		 M222.9,51.3V27.7h8.4v23.6L222.9,51.3L222.9,51.3z M197.4,26.4c6.8,0,11.9,1.5,15.2,4.6c2.7,2.5,4.1,5.7,4.1,9.6v10.8h-8.5V40.9
		c0-2.5-0.7-4.7-2.2-6.6c-1.9-2.4-4.8-3.6-8.7-3.6c-5.4,0-9,0.2-10.9,0.6v19.9h-8.5v-24C181.8,26.7,188.2,26.4,197.4,26.4z"/>
	<path class="st0" d="M39.5,0.4c7.7,0,14.9,2.3,20.9,6.2c6.2,4.1,11.1,9.9,14.1,16.7l1,2.4H73h-2.5h-1.1l-0.5-1
		c-2.6-5.6-6.9-10.3-12.1-13.7c-5-3.2-11-5-17.4-5c-9,0-17.1,3.6-23,9.5c-5.9,5.9-9.5,14-9.5,23c0,9,3.6,17.1,9.5,23
		c5.9,5.9,14,9.5,23,9.5c6.2,0,12.1-1.7,17-4.8c4.3-2.6,7.9-6.2,10.6-10.4h6.5c-3.1,6.1-7.8,11.3-13.6,14.9
		C54,74.7,47,76.8,39.5,76.8c-10.6,0-20.1-4.3-27-11.2c-6.9-6.9-11.2-16.5-11.2-27c0-10.6,4.3-20.1,11.2-27
		C19.4,4.7,29,0.4,39.5,0.4z"/>
	<path class="st0" d="M139.7,70.2c1.5,0,2.3-0.9,2.4-2.5h-1c-0.1,1.1-0.6,1.6-1.5,1.6c-0.8,0-1.4-0.5-1.4-1.6V64
		c0-1.1,0.5-1.7,1.3-1.7c0.9,0,1.4,0.5,1.5,1.6h1c-0.1-1.6-1-2.5-2.4-2.5c-1.4,0-2.3,0.9-2.3,2.6v3.5
		C137.4,69.2,138.3,70.2,139.7,70.2L139.7,70.2z M148.7,70.2c1.6,0,2.5-1.1,2.5-2.8v-3.1c0-1.7-0.9-2.8-2.5-2.8
		c-1.6,0-2.5,1.1-2.5,2.8v3.1C146.2,69.1,147.2,70.2,148.7,70.2L148.7,70.2z M148.7,69.2c-1,0-1.5-0.7-1.5-1.8v-3.1
		c0-1.2,0.5-1.8,1.5-1.8c1,0,1.5,0.7,1.5,1.8v3.1C150.2,68.5,149.7,69.2,148.7,69.2L148.7,69.2z M161,61.6l-1.4,3.5
		c-0.2,0.5-0.5,1.3-0.6,1.8h0c-0.1-0.4-0.4-1.3-0.6-1.8l-1.4-3.5h-1V70h1v-3.8c0-0.9,0-1.7-0.1-2.5l0.1,0c0.2,0.6,0.5,1.4,0.8,2.2
		l0.9,2.3h1l0.9-2.3c0.3-0.8,0.6-1.6,0.8-2.2l0,0c0,0.8-0.1,1.6-0.1,2.5V70h1v-8.4L161,61.6L161,61.6z M169.1,70.1
		c1.4,0,2.4-0.9,2.4-2.7v-5.8h-1v5.8c0,1.2-0.6,1.7-1.4,1.7c-0.8,0-1.4-0.5-1.4-1.7v-5.8h-1v5.8C166.7,69.2,167.7,70.1,169.1,70.1
		L169.1,70.1z M180,61.6v3.9c0,0.7,0.1,1.9,0.1,2.6l0,0c-0.2-0.5-0.6-1.4-0.8-2l-2.1-4.6h-1V70h1v-4c0-0.7,0-1.8-0.1-2.6l0,0
		c0.2,0.5,0.6,1.4,0.8,2L180,70h1v-8.4L180,61.6L180,61.6z M185.8,61.6V70h1v-8.4L185.8,61.6L185.8,61.6z M193.7,70.2
		c1.5,0,2.4-0.9,2.4-2.5h-1c-0.1,1.1-0.6,1.6-1.5,1.6c-0.8,0-1.4-0.5-1.4-1.6V64c0-1.1,0.5-1.7,1.3-1.7c0.9,0,1.4,0.5,1.4,1.6h1
		c-0.1-1.6-1-2.5-2.4-2.5c-1.4,0-2.3,0.9-2.3,2.6v3.5C191.3,69.2,192.3,70.2,193.7,70.2L193.7,70.2z M204,70h1l-2.2-8.4h-1.1
		l-2.2,8.4h1l0.4-1.8h2.4L204,70L204,70z M201.4,67.3l0.7-2.8c0.1-0.5,0.3-1.2,0.3-1.6h0c0,0.3,0.2,1,0.3,1.6l0.7,2.8H201.4
		L201.4,67.3z M213.7,67.7h-1c-0.1,1.1-0.6,1.6-1.5,1.6c-0.8,0-1.4-0.5-1.4-1.6V64c0-1.1,0.5-1.7,1.3-1.7c0.9,0,1.4,0.5,1.5,1.6h1
		c-0.1-1.6-1-2.5-2.4-2.5c-1.4,0-2.3,0.9-2.3,2.6v3.5c0,1.5,0.8,2.4,2.1,2.6l-0.2,0.8l0.2,0.2c0.1-0.1,0.2-0.1,0.4-0.1
		c0.3,0,0.4,0.1,0.4,0.4c0,0.3-0.2,0.4-0.5,0.4c-0.2,0-0.4-0.1-0.5-0.3h-0.7c0.1,0.6,0.5,0.9,1.1,0.9c0.7,0,1.1-0.4,1.1-1
		c0-0.5-0.4-0.8-0.9-0.8h-0.2l0.1-0.5C212.8,70,213.6,69.1,213.7,67.7L213.7,67.7z M219.5,60.1c0.3,0,0.5,0.4,0.9,0.4
		c0.5,0,0.8-0.4,0.9-1h-0.7c0,0.2-0.1,0.3-0.3,0.3c-0.3,0-0.4-0.4-0.9-0.4c-0.5,0-0.9,0.4-0.9,1h0.7
		C219.3,60.2,219.4,60.1,219.5,60.1L219.5,60.1z M221.5,70h1l-2.2-8.4h-1.1l-2.2,8.4h1l0.4-1.8h2.4L221.5,70L221.5,70z M218.9,67.3
		l0.7-2.8c0.1-0.5,0.3-1.2,0.3-1.6h0c0,0.3,0.2,1,0.3,1.6l0.7,2.8H218.9L218.9,67.3z M228.9,70.2c1.6,0,2.5-1.1,2.5-2.8v-3.1
		c0-1.7-0.9-2.8-2.5-2.8c-1.6,0-2.5,1.1-2.5,2.8v3.1C226.4,69.1,227.3,70.2,228.9,70.2L228.9,70.2z M228.9,69.2
		c-1,0-1.5-0.7-1.5-1.8v-3.1c0-1.2,0.5-1.8,1.5-1.8c1,0,1.5,0.7,1.5,1.8v3.1C230.3,68.5,229.8,69.2,228.9,69.2z"/>
</g>
</svg>
